<?xml version="1.0" encoding="UTF-8"?><svg id="Layer_1" xmlns="http://www.w3.org/2000/svg" viewBox="0 0 768 768"><path d="M674.17,0C725.96,0,768,42.05,768,93.83v580.34c0,51.79-42.04,93.83-93.83,93.83H93.83c-51.79,0-93.83-42.04-93.83-93.83V93.83C0,42.05,42.04,0,93.83,0h580.34ZM384,121.5c-71.29,0-80.23.3-108.23,1.58-27.94,1.27-47.02,5.71-63.72,12.2-17.26,6.71-31.9,15.68-46.49,30.28-14.59,14.59-23.57,29.23-30.28,46.49-6.49,16.7-10.93,35.78-12.2,63.72-1.28,28-1.58,36.94-1.58,108.23s.3,80.23,1.58,108.23c1.28,27.94,5.71,47.02,12.2,63.72,6.71,17.26,15.68,31.9,30.28,46.49,14.59,14.59,29.23,23.57,46.49,30.28,16.7,6.49,35.78,10.93,63.72,12.2,28,1.28,36.94,1.58,108.23,1.58s80.23-.3,108.23-1.58c27.94-1.28,47.02-5.71,63.72-12.2,17.26-6.71,31.9-15.68,46.49-30.28s23.57-29.23,30.28-46.49c6.49-16.7,10.93-35.78,12.2-63.72,1.28-28,1.58-36.94,1.58-108.23s-.3-80.23-1.58-108.23c-1.28-27.94-5.71-47.02-12.2-63.72-6.71-17.26-15.68-31.9-30.28-46.49-14.59-14.59-29.23-23.57-46.49-30.28-16.7-6.49-35.78-10.93-63.72-12.2-28-1.28-36.94-1.58-108.23-1.58h0ZM384,168.8c70.09,0,78.39.27,106.07,1.53,25.59,1.17,39.49,5.44,48.74,9.04,12.25,4.76,21,10.45,30.18,19.64,9.19,9.19,14.87,17.93,19.64,30.18,3.59,9.25,7.87,23.15,9.04,48.74,1.26,27.68,1.53,35.98,1.53,106.07s-.27,78.39-1.53,106.07c-1.17,25.59-5.44,39.49-9.04,48.74-4.76,12.25-10.45,21-19.64,30.18-9.19,9.19-17.93,14.87-30.18,19.64-9.25,3.59-23.15,7.87-48.74,9.04-27.68,1.26-35.98,1.53-106.07,1.53s-78.4-.27-106.07-1.53c-25.59-1.17-39.49-5.44-48.74-9.04-12.25-4.76-21-10.45-30.18-19.64-9.19-9.19-14.88-17.93-19.64-30.18-3.59-9.25-7.87-23.15-9.04-48.74-1.26-27.68-1.53-35.98-1.53-106.07s.27-78.39,1.53-106.07c1.17-25.59,5.44-39.49,9.04-48.74,4.76-12.25,10.45-21,19.64-30.18,9.19-9.18,17.93-14.87,30.18-19.64,9.25-3.59,23.15-7.87,48.74-9.04,27.68-1.26,35.98-1.53,106.07-1.53h0ZM384,249.2c-74.45,0-134.8,60.35-134.8,134.8s60.35,134.8,134.8,134.8,134.8-60.35,134.8-134.8-60.35-134.8-134.8-134.8h0ZM384,471.5c-48.33,0-87.5-39.17-87.5-87.5s39.17-87.5,87.5-87.5,87.5,39.17,87.5,87.5-39.17,87.5-87.5,87.5ZM555.62,243.88c0,17.4-14.1,31.5-31.5,31.5s-31.5-14.1-31.5-31.5,14.1-31.5,31.5-31.5,31.5,14.1,31.5,31.5h0Z" style="fill:#172838; fill-rule:evenodd; stroke-width:0px;"/></svg>