<?xml version="1.0" encoding="UTF-8"?><svg id="Layer_1" xmlns="http://www.w3.org/2000/svg" viewBox="0 0 768 768"><path d="M767.88,93.22c-.04-45.72-32.99-83.94-78.2-91.87-1.44-.25-2.81-.89-4.22-1.35H82.5c-11.69,4.12-24.18,6.76-34.9,12.64C22.1,26.64,6.97,48.88,1.43,77.52c-.33,1.69-.95,3.32-1.43,4.97v602.96c3.45,16.24,8.52,31.77,18.98,45.07,18.93,24.07,43.62,37.28,74.27,37.32,193.71.21,387.42.2,581.14.04,51.8-.04,93.45-41.7,93.5-93.53.16-193.71.15-387.42,0-581.14ZM240.14,634.13h-111.63v-337.35h111.63v337.35ZM241.53,218.77c-11.96,22.96-38.07,34.43-69.27,30.33-40.26-5.29-63.06-47.78-44.57-83.93,11.88-23.24,32.74-31.46,50.93-31.92,62.82-.12,80.27,52.17,62.9,85.52ZM646.46,627.76c0,1.96,0,3.93,0,6.43h-112.51v-8.88c0-56.23.24-112.47-.19-168.7-.09-12.38-1.48-24.98-4.17-37.05-4.67-21-16.67-36.47-38.86-40.86-22.92-4.54-43.14,1.01-59.02,19.05-11.23,12.75-16.3,27.67-16.27,44.66.13,60.73.03,121.46.02,182.2,0,2.98,0,5.95,0,9.52h-112.02v-337.57h111.6v46.81c2.41-2.7,3.72-3.88,4.69-5.3,25.82-37.61,62.45-52.09,106.77-49.38,66.94,4.1,106.29,47.26,116.71,112.09,2.05,12.77,3.03,25.85,3.09,38.79.31,62.73.15,125.46.15,188.2Z" style="fill:#172838; stroke-width:0px;"/></svg>