<?xml version="1.0" encoding="UTF-8"?><svg id="Layer_1" xmlns="http://www.w3.org/2000/svg" viewBox="0 0 768 768.06"><path d="M768,82.49v602.94c-.43,1.16-1.04,2.28-1.27,3.48-9.09,47.92-46.34,78.99-94.97,79-126.47.04-252.95.01-379.42,0-2.36,0-4.72-.23-9.37-.47,41.7-58.93,53.38-127.32,71.32-193.98,24.57,32.63,57.4,45.81,95.82,45.84,51.05.04,95.8-17.89,131.95-53.61,66.85-66.05,90.19-148.47,76.26-238.99-15.82-102.86-81.58-164.2-180.05-191.46-46.09-12.76-93.01-11.22-139.62-1.72-62.19,12.67-115.87,41.03-152.93,93.42-55.3,78.17-65.96,161.84-21.81,249.23,12.25,24.24,29.69,44.44,54.46,57.14,10.42,5.34,14.08,3.57,16.89-7.86,3.33-13.57,6.4-27.21,9.96-40.72,1.55-5.88.29-10.55-3.12-15.41-4.57-6.52-9.05-13.22-12.59-20.33-36.14-72.76-13.04-166.45,53.6-214.51,50.94-36.74,107.86-44.62,167.65-28.84,55.44,14.63,92.67,50.14,110.6,105.05,8.69,26.61,9.57,53.97,7.07,81.55-3.52,38.84-13.2,75.75-35.63,108.32-19.03,27.64-43.95,46.87-78,52.18-51.61,8.05-88.37-31.4-73.82-79.19,8.57-28.16,16.8-56.43,24.69-84.79,5.29-19.02,9.7-38.23,6.95-58.34-3.87-28.29-23.6-46.02-52.06-45.43-26.71.55-45.05,15.4-57.46,37.44-21.33,37.88-19.55,77.42-6.18,117.42,1.2,3.58,1.94,7.9,1.12,11.47-11.95,51.53-23.47,103.19-36.62,154.42-11.65,45.38-18.96,90.9-13.87,137.83.85,7.85,1.33,15.74,2.01,23.95-2.02.17-3.23.37-4.44.37-51.49,0-102.98.47-154.46-.17-48.83-.61-90.36-42.24-90.43-91.13C-.07,481.39-.13,286.18.35,90.97.43,58.26,15.94,32.1,43.91,15.1,55.55,8.02,69.61,4.91,82.57,0c200.98,0,401.96,0,602.94,0,1.4.46,2.78,1.08,4.22,1.35,28.44,5.16,50.73,19.83,64.81,44.97,6.21,11.09,9.08,24.06,13.46,36.17Z" style="fill:#172838; stroke-width:0px;"/></svg>